# xmcd
#
# Track frame offsets:
#	150
#	24355
#	44773
#	66028
#	86410
#	112585
#	142060
#	166625
#	183368
#	207138
#
# Disc length: 3013 seconds
#
# Revision: 3996789274
# Processed by: cddbd v1.5.2PL0 Copyright (c) Steve Scherf et al.
# Submitted via: EZCDAudioConverter 8.0.2.1
#
DISCID=7a0bc30a
DTITLE=Tuấn Vũ - Tuyệt Phẩm Để Đời 3
DYEAR=1989
DGENRE=Miscellaneous
TTITLE0=Đường xưa lối cũ
TTITLE1=Nó
TTITLE2=Đoạn tái bút
TTITLE3=Vết thương cuối cùng
TTITLE4=Cho vừa lòng em
TTITLE5=Giã từ vũ khí
TTITLE6=Người em xóm đạo
TTITLE7=Ngày đó xa rồi
TTITLE8=Trả lại em yêu
TTITLE9=Lạnh trọn đêm mưa
EXTD=
EXTT0=
EXTT1=
EXTT2=
EXTT3=
EXTT4=
EXTT5=
EXTT6=
EXTT7=
EXTT8=
EXTT9=
PLAYORDER=
